<svg width="16" height="16" viewBox="0 0 16 16" fill="none" xmlns="http://www.w3.org/2000/svg">
<g clip-path="url(#clip0_986_5488)">
<path d="M8.00112 0C5.71539 0 3.84692 1.86847 3.84692 4.1542C3.84692 6.43993 5.71539 8.3084 8.00112 8.3084C10.2868 8.3084 12.1553 6.43993 12.1553 4.1542C12.1553 1.86847 10.2868 0 8.00112 0Z" fill="black"/>
<path d="M15.1303 11.6285C15.0215 11.3564 14.8764 11.1024 14.7131 10.8666C13.8786 9.63302 12.5907 8.8167 11.1394 8.61715C10.958 8.59903 10.7585 8.63528 10.6133 8.74413C9.85143 9.30649 8.94442 9.59673 8.00108 9.59673C7.05775 9.59673 6.15074 9.30649 5.38883 8.74413C5.24369 8.63528 5.04414 8.58087 4.86275 8.61715C3.4115 8.8167 2.10539 9.63302 1.28907 10.8666C1.1258 11.1024 0.980665 11.3745 0.871846 11.6285C0.817436 11.7374 0.835561 11.8643 0.889971 11.9732C1.03511 12.2271 1.2165 12.4811 1.37976 12.6988C1.63372 13.0435 1.90584 13.3519 2.21424 13.6421C2.4682 13.8961 2.75844 14.1319 3.04872 14.3677C4.48181 15.438 6.20518 16.0004 7.98296 16.0004C9.76074 16.0004 11.4841 15.438 12.9172 14.3677C13.2074 14.1501 13.4977 13.8961 13.7517 13.6421C14.0419 13.3519 14.3322 13.0435 14.5862 12.6988C14.7675 12.463 14.9308 12.2271 15.0759 11.9732C15.1666 11.8643 15.1847 11.7373 15.1303 11.6285Z" fill="black"/>
</g>
<defs>
<clipPath id="clip0_986_5488">
<rect width="16" height="16" fill="white"/>
</clipPath>
</defs>
</svg>
