<svg width="38" height="38" viewBox="0 0 38 38" fill="none" xmlns="http://www.w3.org/2000/svg">
<circle cx="19" cy="19" r="19" fill="#FFD25A"/>
<path d="M28.05 18.3569C28.05 22.9574 24.292 26.6867 19.6554 26.6867C18.2371 26.689 16.8412 26.3323 15.5976 25.6502L10.95 27.1271L12.4653 22.6579C11.6756 21.3625 11.2588 19.874 11.2607 18.3569C11.2607 13.7564 15.0191 10.0271 19.6556 10.0271C24.2922 10.0271 28.05 13.7564 28.05 18.3569ZM19.6554 11.3537C15.7635 11.3537 12.5977 14.4953 12.5977 18.3569C12.5977 19.8892 13.0972 21.3084 13.9421 22.463L13.0603 25.0637L15.7726 24.2017C16.9257 24.9592 18.2757 25.362 19.6554 25.3601C23.547 25.3601 26.7132 22.2186 26.7132 18.3571C26.7132 14.4955 23.5472 11.3537 19.6554 11.3537ZM23.8945 20.2753C23.8427 20.1904 23.7057 20.1391 23.5001 20.0371C23.2941 19.935 22.2822 19.4408 22.0941 19.373C21.9052 19.305 21.7679 19.2706 21.6307 19.475C21.4937 19.6795 21.0992 20.1391 20.979 20.2753C20.8591 20.4117 20.7392 20.4288 20.5332 20.3266C20.3277 20.2246 19.6646 20.0089 18.8785 19.3133C18.2669 18.7722 17.8539 18.1042 17.7338 17.8996C17.6139 17.6953 17.7212 17.5849 17.824 17.4833C17.9167 17.3917 18.03 17.2448 18.1328 17.1257C18.2359 17.0064 18.2701 16.9214 18.3384 16.785C18.4073 16.6488 18.3729 16.5297 18.3213 16.4272C18.27 16.3252 17.858 15.3205 17.6867 14.9116C17.5153 14.5031 17.3441 14.5711 17.2238 14.5711C17.1039 14.5711 16.9666 14.554 16.8294 14.554C16.6922 14.554 16.4691 14.6051 16.2805 14.8094C16.092 15.0138 15.5606 15.5078 15.5606 16.5124C15.5606 17.5171 16.2976 18.4878 16.4007 18.6238C16.5035 18.7599 17.8238 20.8886 19.9157 21.7062C22.008 22.5236 22.008 22.2509 22.3854 22.2169C22.7623 22.1829 23.6025 21.7231 23.7744 21.2464C23.9456 20.7693 23.9456 20.3604 23.8945 20.2753Z" fill="#222222"/>
</svg>
