<svg width="30" height="30" viewBox="0 0 30 30" fill="none" xmlns="http://www.w3.org/2000/svg">
<circle cx="15" cy="15" r="14.5" stroke="url(#paint0_linear_864_5489)"/>
<path d="M21.9579 12.114C21.9238 11.3688 21.8055 10.86 21.6325 10.4148C21.4568 9.94771 21.1812 9.52463 20.8251 9.17493C20.4755 8.81882 20.0523 8.54314 19.5852 8.36732C19.1399 8.1944 18.6312 8.07616 17.886 8.0423C17.1395 8.00812 16.901 8 15 8C13.099 8 12.8605 8.00812 12.114 8.04208C11.3688 8.07616 10.8601 8.1945 10.4148 8.36754C9.94771 8.54324 9.52463 8.81882 9.17493 9.17493C8.81882 9.52452 8.54314 9.9476 8.36732 10.4147C8.1944 10.86 8.07616 11.3688 8.0423 12.1138C8.00812 12.8605 8 13.0989 8 14.9999C8 16.901 8.00812 17.1395 8.0423 17.886C8.07626 18.6311 8.19461 19.1399 8.36765 19.5852C8.54335 20.0522 8.81892 20.4754 9.17503 20.825C9.52463 21.1811 9.94781 21.4566 10.4149 21.6324C10.8601 21.8055 11.3689 21.9237 12.1141 21.9578C12.8607 21.9919 13.0991 21.9999 15.0001 21.9999C16.9011 21.9999 17.1396 21.9919 17.8862 21.9578C18.6313 21.9237 19.14 21.8055 19.5853 21.6324C20.5256 21.2688 21.2689 20.5255 21.6325 19.5852C21.8056 19.1399 21.9238 18.6311 21.9579 17.886C21.9919 17.1394 22 16.901 22 15C22 13.0989 21.9919 12.8605 21.9579 12.114V12.114ZM20.6979 17.8287C20.6668 18.5112 20.5527 18.8819 20.4569 19.1285C20.2214 19.739 19.7389 20.2215 19.1284 20.457C18.8817 20.5528 18.5111 20.6669 17.8286 20.698C17.0906 20.7317 16.8692 20.7388 15 20.7388C13.1307 20.7388 12.9094 20.7317 12.1713 20.698C11.4889 20.6669 11.1183 20.5528 10.8715 20.457C10.5675 20.3447 10.2925 20.1658 10.0667 19.9333C9.83417 19.7075 9.65526 19.4326 9.543 19.1285C9.44719 18.8819 9.33311 18.5112 9.30203 17.8287C9.26839 17.0906 9.26123 16.8692 9.26123 15.0001C9.26123 13.1309 9.26839 12.9096 9.30203 12.1714C9.33322 11.4889 9.44719 11.1183 9.543 10.8716C9.65526 10.5675 9.83427 10.2925 10.0667 10.0667C10.2925 9.83417 10.5675 9.65526 10.8716 9.54311C11.1183 9.44719 11.4889 9.33322 12.1714 9.30203C12.9095 9.26839 13.1309 9.26123 15 9.26123H14.9999C16.869 9.26123 17.0904 9.26839 17.8286 9.30214C18.5111 9.33322 18.8816 9.4473 19.1284 9.54311C19.4324 9.65536 19.7074 9.83427 19.9332 10.0667C20.1657 10.2925 20.3446 10.5675 20.4568 10.8716C20.5527 11.1183 20.6668 11.4889 20.6979 12.1714C20.7315 12.9095 20.7387 13.1309 20.7387 15C20.7387 16.8692 20.7316 17.0905 20.6979 17.8287Z" fill="url(#paint1_linear_864_5489)"/>
<path d="M14.9998 11.4053C13.0146 11.4053 11.4053 13.0147 11.4053 14.9999C11.4053 16.9851 13.0146 18.5944 14.9998 18.5944C16.9851 18.5944 18.5944 16.9851 18.5944 14.9999C18.5944 13.0147 16.9851 11.4053 14.9998 11.4053V11.4053ZM14.9998 17.3332C13.7112 17.3331 12.6665 16.2885 12.6666 14.9998C12.6666 13.7112 13.7112 12.6665 14.9999 12.6665C16.2886 12.6666 17.3332 13.7112 17.3332 14.9998C17.3332 16.2885 16.2885 17.3332 14.9998 17.3332V17.3332Z" fill="url(#paint2_linear_864_5489)"/>
<path d="M19.5766 11.2634C19.5766 11.7273 19.2006 12.1034 18.7367 12.1034C18.2727 12.1034 17.8966 11.7273 17.8966 11.2634C17.8966 10.7994 18.2727 10.4233 18.7367 10.4233C19.2006 10.4233 19.5766 10.7994 19.5766 11.2634V11.2634Z" fill="url(#paint3_linear_864_5489)"/>
<defs>
<linearGradient id="paint0_linear_864_5489" x1="25.5" y1="3.5" x2="5" y2="26" gradientUnits="userSpaceOnUse">
<stop stop-color="#DA01B2"/>
<stop offset="0.493019" stop-color="#FF0501"/>
<stop offset="1" stop-color="#FFD001"/>
</linearGradient>
<linearGradient id="paint1_linear_864_5489" x1="9.17486" y1="20.825" x2="20.8251" y2="9.17474" gradientUnits="userSpaceOnUse">
<stop stop-color="#FFD600"/>
<stop offset="0.5" stop-color="#FF0100"/>
<stop offset="1" stop-color="#D800B9"/>
</linearGradient>
<linearGradient id="paint2_linear_864_5489" x1="12.4581" y1="17.5416" x2="17.5416" y2="12.4581" gradientUnits="userSpaceOnUse">
<stop stop-color="#FF6400"/>
<stop offset="0.5" stop-color="#FF0100"/>
<stop offset="1" stop-color="#FD0056"/>
</linearGradient>
<linearGradient id="paint3_linear_864_5489" x1="18.1427" y1="11.8573" x2="19.3306" y2="10.6694" gradientUnits="userSpaceOnUse">
<stop stop-color="#F30072"/>
<stop offset="1" stop-color="#E50097"/>
</linearGradient>
</defs>
</svg>
