<svg width="320" height="512" viewBox="0 0 320 512" fill="none" xmlns="http://www.w3.org/2000/svg">
<rect x="108" width="212" height="512" rx="9" fill="#45C436"/>
<path d="M0 9C0 4.02944 4.02944 0 9 0H151C155.971 0 160 4.02944 160 9V512H9C4.02943 512 0 507.971 0 503V9Z" fill="#FFD25A"/>
<path d="M113.941 98.7008C113.195 98.7008 112.59 98.0962 112.59 97.3504C112.59 96.6046 113.195 96 113.941 96C114.686 96 115.291 96.6046 115.291 97.3504C115.291 98.0962 114.686 98.7008 113.941 98.7008Z" fill="white"/>
<path d="M74.5863 98.7008C73.8405 98.7008 73.2359 98.0962 73.2359 97.3504C73.2359 96.6046 73.8405 96 74.5863 96C75.3321 96 75.9367 96.6046 75.9367 97.3504C75.9367 98.0962 75.3321 98.7008 74.5863 98.7008Z" fill="white"/>
<path d="M100.823 98.7008C100.077 98.7008 99.4721 98.0962 99.4721 97.3504C99.4721 96.6046 100.077 96 100.823 96C101.568 96 102.173 96.6046 102.173 97.3504C102.173 98.0962 101.568 98.7008 100.823 98.7008Z" fill="white"/>
<path d="M61.4682 98.7008C60.7224 98.7008 60.1178 98.0962 60.1178 97.3504C60.1178 96.6046 60.7224 96 61.4682 96C62.214 96 62.8186 96.6046 62.8186 97.3504C62.8186 98.0962 62.214 98.7008 61.4682 98.7008Z" fill="white"/>
<path d="M87.7044 98.7008C86.9586 98.7008 86.354 98.0962 86.354 97.3504C86.354 96.6046 86.9586 96 87.7044 96C88.4502 96 89.0548 96.6046 89.0548 97.3504C89.0548 98.0962 88.4502 98.7008 87.7044 98.7008Z" fill="white"/>
<path d="M48.3501 98.7008C47.6043 98.7008 46.9997 98.0962 46.9997 97.3504C46.9997 96.6046 47.6043 96 48.3501 96C49.0959 96 49.7005 96.6046 49.7005 97.3504C49.7005 98.0962 49.0959 98.7008 48.3501 98.7008Z" fill="white"/>
<path d="M113.941 151.173C113.195 151.173 112.59 150.569 112.59 149.823C112.59 149.077 113.195 148.472 113.941 148.472C114.686 148.472 115.291 149.077 115.291 149.823C115.291 150.569 114.686 151.173 113.941 151.173Z" fill="white"/>
<path d="M74.5863 151.173C73.8405 151.173 73.2359 150.569 73.2359 149.823C73.2359 149.077 73.8405 148.472 74.5863 148.472C75.3321 148.472 75.9367 149.077 75.9367 149.823C75.9367 150.569 75.3321 151.173 74.5863 151.173Z" fill="white"/>
<path d="M100.823 151.173C100.077 151.173 99.4721 150.569 99.4721 149.823C99.4721 149.077 100.077 148.472 100.823 148.472C101.568 148.472 102.173 149.077 102.173 149.823C102.173 150.569 101.568 151.173 100.823 151.173Z" fill="white"/>
<path d="M61.4682 151.173C60.7224 151.173 60.1178 150.569 60.1178 149.823C60.1178 149.077 60.7224 148.472 61.4682 148.472C62.214 148.472 62.8186 149.077 62.8186 149.823C62.8186 150.569 62.214 151.173 61.4682 151.173Z" fill="white"/>
<path d="M87.7044 151.173C86.9586 151.173 86.354 150.569 86.354 149.823C86.354 149.077 86.9586 148.472 87.7044 148.472C88.4502 148.472 89.0548 149.077 89.0548 149.823C89.0548 150.569 88.4502 151.173 87.7044 151.173Z" fill="white"/>
<path d="M48.3501 151.173C47.6043 151.173 46.9997 150.569 46.9997 149.823C46.9997 149.077 47.6043 148.472 48.3501 148.472C49.0959 148.472 49.7005 149.077 49.7005 149.823C49.7005 150.569 49.0959 151.173 48.3501 151.173Z" fill="white"/>
<path d="M113.941 203.646C113.195 203.646 112.59 203.041 112.59 202.295C112.59 201.549 113.195 200.945 113.941 200.945C114.686 200.945 115.291 201.549 115.291 202.295C115.291 203.041 114.686 203.646 113.941 203.646Z" fill="white"/>
<path d="M74.5863 203.646C73.8405 203.646 73.2359 203.041 73.2359 202.295C73.2359 201.549 73.8405 200.945 74.5863 200.945C75.3321 200.945 75.9367 201.549 75.9367 202.295C75.9367 203.041 75.3321 203.646 74.5863 203.646Z" fill="white"/>
<path d="M100.823 203.646C100.077 203.646 99.4721 203.041 99.4721 202.295C99.4721 201.549 100.077 200.945 100.823 200.945C101.568 200.945 102.173 201.549 102.173 202.295C102.173 203.041 101.568 203.646 100.823 203.646Z" fill="white"/>
<path d="M61.4682 203.646C60.7224 203.646 60.1178 203.041 60.1178 202.295C60.1178 201.549 60.7224 200.945 61.4682 200.945C62.214 200.945 62.8186 201.549 62.8186 202.295C62.8186 203.041 62.214 203.646 61.4682 203.646Z" fill="white"/>
<path d="M87.7044 203.646C86.9586 203.646 86.354 203.041 86.354 202.295C86.354 201.549 86.9586 200.945 87.7044 200.945C88.4502 200.945 89.0548 201.549 89.0548 202.295C89.0548 203.041 88.4502 203.646 87.7044 203.646Z" fill="white"/>
<path d="M48.3501 203.646C47.6043 203.646 46.9997 203.041 46.9997 202.295C46.9997 201.549 47.6043 200.945 48.3501 200.945C49.0959 200.945 49.7005 201.549 49.7005 202.295C49.7005 203.041 49.0959 203.646 48.3501 203.646Z" fill="white"/>
<path d="M113.941 111.819C113.195 111.819 112.59 111.214 112.59 110.469C112.59 109.723 113.195 109.118 113.941 109.118C114.686 109.118 115.291 109.723 115.291 110.469C115.291 111.214 114.686 111.819 113.941 111.819Z" fill="white"/>
<path d="M74.5863 111.819C73.8405 111.819 73.2359 111.214 73.2359 110.469C73.2359 109.723 73.8405 109.118 74.5863 109.118C75.3321 109.118 75.9367 109.723 75.9367 110.469C75.9367 111.214 75.3321 111.819 74.5863 111.819Z" fill="white"/>
<path d="M100.823 111.819C100.077 111.819 99.4721 111.214 99.4721 110.469C99.4721 109.723 100.077 109.118 100.823 109.118C101.568 109.118 102.173 109.723 102.173 110.469C102.173 111.214 101.568 111.819 100.823 111.819Z" fill="white"/>
<path d="M61.4682 111.819C60.7224 111.819 60.1178 111.214 60.1178 110.469C60.1178 109.723 60.7224 109.118 61.4682 109.118C62.214 109.118 62.8186 109.723 62.8186 110.469C62.8186 111.214 62.214 111.819 61.4682 111.819Z" fill="white"/>
<path d="M87.7044 111.819C86.9586 111.819 86.354 111.214 86.354 110.469C86.354 109.723 86.9586 109.118 87.7044 109.118C88.4502 109.118 89.0548 109.723 89.0548 110.469C89.0548 111.214 88.4502 111.819 87.7044 111.819Z" fill="white"/>
<path d="M48.3501 111.819C47.6043 111.819 46.9997 111.214 46.9997 110.469C46.9997 109.723 47.6043 109.118 48.3501 109.118C49.0959 109.118 49.7005 109.723 49.7005 110.469C49.7005 111.214 49.0959 111.819 48.3501 111.819Z" fill="white"/>
<path d="M113.941 164.291C113.195 164.291 112.59 163.687 112.59 162.941C112.59 162.195 113.195 161.591 113.941 161.591C114.686 161.591 115.291 162.195 115.291 162.941C115.291 163.687 114.686 164.291 113.941 164.291Z" fill="white"/>
<path d="M74.5863 164.291C73.8405 164.291 73.2359 163.687 73.2359 162.941C73.2359 162.195 73.8405 161.591 74.5863 161.591C75.3321 161.591 75.9367 162.195 75.9367 162.941C75.9367 163.687 75.3321 164.291 74.5863 164.291Z" fill="white"/>
<path d="M100.823 164.291C100.077 164.291 99.4721 163.687 99.4721 162.941C99.4721 162.195 100.077 161.591 100.823 161.591C101.568 161.591 102.173 162.195 102.173 162.941C102.173 163.687 101.568 164.291 100.823 164.291Z" fill="white"/>
<path d="M61.4682 164.291C60.7224 164.291 60.1178 163.687 60.1178 162.941C60.1178 162.195 60.7224 161.591 61.4682 161.591C62.214 161.591 62.8186 162.195 62.8186 162.941C62.8186 163.687 62.214 164.291 61.4682 164.291Z" fill="white"/>
<path d="M87.7044 164.291C86.9586 164.291 86.354 163.687 86.354 162.941C86.354 162.195 86.9586 161.591 87.7044 161.591C88.4502 161.591 89.0548 162.195 89.0548 162.941C89.0548 163.687 88.4502 164.291 87.7044 164.291Z" fill="white"/>
<path d="M48.3501 164.291C47.6043 164.291 46.9997 163.687 46.9997 162.941C46.9997 162.195 47.6043 161.591 48.3501 161.591C49.0959 161.591 49.7005 162.195 49.7005 162.941C49.7005 163.687 49.0959 164.291 48.3501 164.291Z" fill="white"/>
<path d="M113.941 216.764C113.195 216.764 112.59 216.159 112.59 215.413C112.59 214.668 113.195 214.063 113.941 214.063C114.686 214.063 115.291 214.668 115.291 215.413C115.291 216.159 114.686 216.764 113.941 216.764Z" fill="white"/>
<path d="M74.5863 216.764C73.8405 216.764 73.2359 216.159 73.2359 215.413C73.2359 214.668 73.8405 214.063 74.5863 214.063C75.3321 214.063 75.9367 214.668 75.9367 215.413C75.9367 216.159 75.3321 216.764 74.5863 216.764Z" fill="white"/>
<path d="M100.823 216.764C100.077 216.764 99.4721 216.159 99.4721 215.413C99.4721 214.668 100.077 214.063 100.823 214.063C101.568 214.063 102.173 214.668 102.173 215.413C102.173 216.159 101.568 216.764 100.823 216.764Z" fill="white"/>
<path d="M61.4682 216.764C60.7224 216.764 60.1178 216.159 60.1178 215.413C60.1178 214.668 60.7224 214.063 61.4682 214.063C62.214 214.063 62.8186 214.668 62.8186 215.413C62.8186 216.159 62.214 216.764 61.4682 216.764Z" fill="white"/>
<path d="M87.7044 216.764C86.9586 216.764 86.354 216.159 86.354 215.413C86.354 214.668 86.9586 214.063 87.7044 214.063C88.4502 214.063 89.0548 214.668 89.0548 215.413C89.0548 216.159 88.4502 216.764 87.7044 216.764Z" fill="white"/>
<path d="M48.3501 216.764C47.6043 216.764 46.9997 216.159 46.9997 215.413C46.9997 214.668 47.6043 214.063 48.3501 214.063C49.0959 214.063 49.7005 214.668 49.7005 215.413C49.7005 216.159 49.0959 216.764 48.3501 216.764Z" fill="white"/>
<path d="M113.941 124.937C113.195 124.937 112.59 124.332 112.59 123.587C112.59 122.841 113.195 122.236 113.941 122.236C114.686 122.236 115.291 122.841 115.291 123.587C115.291 124.332 114.686 124.937 113.941 124.937Z" fill="white"/>
<path d="M74.5863 124.937C73.8405 124.937 73.2359 124.332 73.2359 123.587C73.2359 122.841 73.8405 122.236 74.5863 122.236C75.3321 122.236 75.9367 122.841 75.9367 123.587C75.9367 124.332 75.3321 124.937 74.5863 124.937Z" fill="white"/>
<path d="M100.823 124.937C100.077 124.937 99.4721 124.332 99.4721 123.587C99.4721 122.841 100.077 122.236 100.823 122.236C101.568 122.236 102.173 122.841 102.173 123.587C102.173 124.332 101.568 124.937 100.823 124.937Z" fill="white"/>
<path d="M61.4682 124.937C60.7224 124.937 60.1178 124.332 60.1178 123.587C60.1178 122.841 60.7224 122.236 61.4682 122.236C62.214 122.236 62.8186 122.841 62.8186 123.587C62.8186 124.332 62.214 124.937 61.4682 124.937Z" fill="white"/>
<path d="M87.7044 124.937C86.9586 124.937 86.354 124.332 86.354 123.587C86.354 122.841 86.9586 122.236 87.7044 122.236C88.4502 122.236 89.0548 122.841 89.0548 123.587C89.0548 124.332 88.4502 124.937 87.7044 124.937Z" fill="white"/>
<path d="M48.3501 124.937C47.6043 124.937 46.9997 124.332 46.9997 123.587C46.9997 122.841 47.6043 122.236 48.3501 122.236C49.0959 122.236 49.7005 122.841 49.7005 123.587C49.7005 124.332 49.0959 124.937 48.3501 124.937Z" fill="white"/>
<path d="M113.941 177.409C113.195 177.409 112.59 176.805 112.59 176.059C112.59 175.313 113.195 174.709 113.941 174.709C114.686 174.709 115.291 175.313 115.291 176.059C115.291 176.805 114.686 177.409 113.941 177.409Z" fill="white"/>
<path d="M74.5863 177.409C73.8405 177.409 73.2359 176.805 73.2359 176.059C73.2359 175.313 73.8405 174.709 74.5863 174.709C75.3321 174.709 75.9367 175.313 75.9367 176.059C75.9367 176.805 75.3321 177.409 74.5863 177.409Z" fill="white"/>
<path d="M100.823 177.409C100.077 177.409 99.4721 176.805 99.4721 176.059C99.4721 175.313 100.077 174.709 100.823 174.709C101.568 174.709 102.173 175.313 102.173 176.059C102.173 176.805 101.568 177.409 100.823 177.409Z" fill="white"/>
<path d="M61.4682 177.409C60.7224 177.409 60.1178 176.805 60.1178 176.059C60.1178 175.313 60.7224 174.709 61.4682 174.709C62.214 174.709 62.8186 175.313 62.8186 176.059C62.8186 176.805 62.214 177.409 61.4682 177.409Z" fill="white"/>
<path d="M87.7044 177.409C86.9586 177.409 86.354 176.805 86.354 176.059C86.354 175.313 86.9586 174.709 87.7044 174.709C88.4502 174.709 89.0548 175.313 89.0548 176.059C89.0548 176.805 88.4502 177.409 87.7044 177.409Z" fill="white"/>
<path d="M48.3501 177.409C47.6043 177.409 46.9997 176.805 46.9997 176.059C46.9997 175.313 47.6043 174.709 48.3501 174.709C49.0959 174.709 49.7005 175.313 49.7005 176.059C49.7005 176.805 49.0959 177.409 48.3501 177.409Z" fill="white"/>
<path d="M113.941 229.882C113.195 229.882 112.59 229.277 112.59 228.531C112.59 227.786 113.195 227.181 113.941 227.181C114.686 227.181 115.291 227.786 115.291 228.531C115.291 229.277 114.686 229.882 113.941 229.882Z" fill="white"/>
<path d="M74.5863 229.882C73.8405 229.882 73.2359 229.277 73.2359 228.531C73.2359 227.786 73.8405 227.181 74.5863 227.181C75.3321 227.181 75.9367 227.786 75.9367 228.531C75.9367 229.277 75.3321 229.882 74.5863 229.882Z" fill="white"/>
<path d="M100.823 229.882C100.077 229.882 99.4721 229.277 99.4721 228.531C99.4721 227.786 100.077 227.181 100.823 227.181C101.568 227.181 102.173 227.786 102.173 228.531C102.173 229.277 101.568 229.882 100.823 229.882Z" fill="white"/>
<path d="M61.4682 229.882C60.7224 229.882 60.1178 229.277 60.1178 228.531C60.1178 227.786 60.7224 227.181 61.4682 227.181C62.214 227.181 62.8186 227.786 62.8186 228.531C62.8186 229.277 62.214 229.882 61.4682 229.882Z" fill="white"/>
<path d="M87.7044 229.882C86.9586 229.882 86.354 229.277 86.354 228.531C86.354 227.786 86.9586 227.181 87.7044 227.181C88.4502 227.181 89.0548 227.786 89.0548 228.531C89.0548 229.277 88.4502 229.882 87.7044 229.882Z" fill="white"/>
<path d="M48.3501 229.882C47.6043 229.882 46.9997 229.277 46.9997 228.531C46.9997 227.786 47.6043 227.181 48.3501 227.181C49.0959 227.181 49.7005 227.786 49.7005 228.531C49.7005 229.277 49.0959 229.882 48.3501 229.882Z" fill="white"/>
<path d="M113.941 138.055C113.195 138.055 112.59 137.451 112.59 136.705C112.59 135.959 113.195 135.354 113.941 135.354C114.686 135.354 115.291 135.959 115.291 136.705C115.291 137.451 114.686 138.055 113.941 138.055Z" fill="white"/>
<path d="M74.5863 138.055C73.8405 138.055 73.2359 137.451 73.2359 136.705C73.2359 135.959 73.8405 135.354 74.5863 135.354C75.3321 135.354 75.9367 135.959 75.9367 136.705C75.9367 137.451 75.3321 138.055 74.5863 138.055Z" fill="white"/>
<path d="M100.823 138.055C100.077 138.055 99.4721 137.451 99.4721 136.705C99.4721 135.959 100.077 135.354 100.823 135.354C101.568 135.354 102.173 135.959 102.173 136.705C102.173 137.451 101.568 138.055 100.823 138.055Z" fill="white"/>
<path d="M61.4682 138.055C60.7224 138.055 60.1178 137.451 60.1178 136.705C60.1178 135.959 60.7224 135.354 61.4682 135.354C62.214 135.354 62.8186 135.959 62.8186 136.705C62.8186 137.451 62.214 138.055 61.4682 138.055Z" fill="white"/>
<path d="M87.7044 138.055C86.9586 138.055 86.354 137.451 86.354 136.705C86.354 135.959 86.9586 135.354 87.7044 135.354C88.4502 135.354 89.0548 135.959 89.0548 136.705C89.0548 137.451 88.4502 138.055 87.7044 138.055Z" fill="white"/>
<path d="M48.3501 138.055C47.6043 138.055 46.9997 137.451 46.9997 136.705C46.9997 135.959 47.6043 135.354 48.3501 135.354C49.0959 135.354 49.7005 135.959 49.7005 136.705C49.7005 137.451 49.0959 138.055 48.3501 138.055Z" fill="white"/>
<path d="M113.941 190.528C113.195 190.528 112.59 189.923 112.59 189.177C112.59 188.431 113.195 187.827 113.941 187.827C114.686 187.827 115.291 188.431 115.291 189.177C115.291 189.923 114.686 190.528 113.941 190.528Z" fill="white"/>
<path d="M74.5863 190.528C73.8405 190.528 73.2359 189.923 73.2359 189.177C73.2359 188.431 73.8405 187.827 74.5863 187.827C75.3321 187.827 75.9367 188.431 75.9367 189.177C75.9367 189.923 75.3321 190.528 74.5863 190.528Z" fill="white"/>
<path d="M100.823 190.528C100.077 190.528 99.4721 189.923 99.4721 189.177C99.4721 188.431 100.077 187.827 100.823 187.827C101.568 187.827 102.173 188.431 102.173 189.177C102.173 189.923 101.568 190.528 100.823 190.528Z" fill="white"/>
<path d="M61.4682 190.528C60.7224 190.528 60.1178 189.923 60.1178 189.177C60.1178 188.431 60.7224 187.827 61.4682 187.827C62.214 187.827 62.8186 188.431 62.8186 189.177C62.8186 189.923 62.214 190.528 61.4682 190.528Z" fill="white"/>
<path d="M87.7044 190.528C86.9586 190.528 86.354 189.923 86.354 189.177C86.354 188.431 86.9586 187.827 87.7044 187.827C88.4502 187.827 89.0548 188.431 89.0548 189.177C89.0548 189.923 88.4502 190.528 87.7044 190.528Z" fill="white"/>
<path d="M48.3501 190.528C47.6043 190.528 46.9997 189.923 46.9997 189.177C46.9997 188.431 47.6043 187.827 48.3501 187.827C49.0959 187.827 49.7005 188.431 49.7005 189.177C49.7005 189.923 49.0959 190.528 48.3501 190.528Z" fill="white"/>
<path d="M113.941 243C113.195 243 112.59 242.395 112.59 241.65C112.59 240.904 113.195 240.299 113.941 240.299C114.686 240.299 115.291 240.904 115.291 241.65C115.291 242.395 114.686 243 113.941 243Z" fill="white"/>
<path d="M74.5863 243C73.8405 243 73.2359 242.395 73.2359 241.65C73.2359 240.904 73.8405 240.299 74.5863 240.299C75.3321 240.299 75.9367 240.904 75.9367 241.65C75.9367 242.395 75.3321 243 74.5863 243Z" fill="white"/>
<path d="M100.823 243C100.077 243 99.4721 242.395 99.4721 241.65C99.4721 240.904 100.077 240.299 100.823 240.299C101.568 240.299 102.173 240.904 102.173 241.65C102.173 242.395 101.568 243 100.823 243Z" fill="white"/>
<path d="M61.4682 243C60.7224 243 60.1178 242.395 60.1178 241.65C60.1178 240.904 60.7224 240.299 61.4682 240.299C62.214 240.299 62.8186 240.904 62.8186 241.65C62.8186 242.395 62.214 243 61.4682 243Z" fill="white"/>
<path d="M87.7044 243C86.9586 243 86.354 242.395 86.354 241.65C86.354 240.904 86.9586 240.299 87.7044 240.299C88.4502 240.299 89.0548 240.904 89.0548 241.65C89.0548 242.395 88.4502 243 87.7044 243Z" fill="white"/>
<path d="M48.3501 243C47.6043 243 46.9997 242.395 46.9997 241.65C46.9997 240.904 47.6043 240.299 48.3501 240.299C49.0959 240.299 49.7005 240.904 49.7005 241.65C49.7005 242.395 49.0959 243 48.3501 243Z" fill="white"/>
<mask id="mask0_642_5493" style="mask-type:alpha" maskUnits="userSpaceOnUse" x="276" y="8" width="34" height="34">
<circle cx="293" cy="25" r="17" fill="#FFD25A"/>
</mask>
<g mask="url(#mask0_642_5493)">
<g filter="url(#filter0_f_642_5493)">
<circle cx="288" cy="31" r="20" fill="#FFD25A"/>
</g>
</g>
<defs>
<filter id="filter0_f_642_5493" x="258" y="1" width="60" height="60" filterUnits="userSpaceOnUse" color-interpolation-filters="sRGB">
<feFlood flood-opacity="0" result="BackgroundImageFix"/>
<feBlend mode="normal" in="SourceGraphic" in2="BackgroundImageFix" result="shape"/>
<feGaussianBlur stdDeviation="5" result="effect1_foregroundBlur_642_5493"/>
</filter>
</defs>
</svg>
